<svg
      xmlns="http://www.w3.org/2000/svg"
      width="16"
      height="16"
      viewBox="0 0 16 16"
      fill="none"
    >
      <g clipPath="url(#clip0_633_24592)">
        <path
          d="M4.66667 7.33334H6V8.66668H4.66667V7.33334ZM14 4.00001V13.3333C14 14.0667 13.4 14.6667 12.6667 14.6667H3.33333C2.59333 14.6667 2 14.0667 2 13.3333L2.00667 4.00001C2.00667 3.26668 2.59333 2.66668 3.33333 2.66668H4V1.33334H5.33333V2.66668H10.6667V1.33334H12V2.66668H12.6667C13.4 2.66668 14 3.26668 14 4.00001ZM3.33333 5.33334H12.6667V4.00001H3.33333V5.33334ZM12.6667 13.3333V6.66668H3.33333V13.3333H12.6667ZM10 8.66668H11.3333V7.33334H10V8.66668ZM7.33333 8.66668H8.66667V7.33334H7.33333V8.66668Z"
          fill="#CCCCCC"
        />
      </g>
      <defs>
        <clipPath id="clip0_633_24592">
          <rect width="16" height="16" fill="white" />
        </clipPath>
      </defs>
    </svg>