<svg xmlns="http://www.w3.org/2000/svg" width="16" height="16" viewBox="0 0 16 16" fill="none">
  <path d="M14.45 6.55C13.7 5.8 12.5 5.8 11.75 6.55L6.65 11.65C6.6 11.7 6.55 11.8 6.5 11.9L6 14.4C5.95 14.55 6 14.75 6.15 14.85C6.25 14.95 6.45 15 6.6 15L9.1 14.5C9.2 14.5 9.3 14.45 9.35 14.35L14.45 9.25C15.2 8.5 15.2 7.3 14.45 6.55ZM8.75 13.55L7.15 13.85L7.45 12.25L11.5 8.2L12.8 9.5L8.75 13.55ZM13.75 8.55L13.5 8.8L12.2 7.5L12.45 7.25C12.8 6.9 13.4 6.9 13.75 7.25C14.1 7.6 14.1 8.2 13.75 8.55ZM9.15 7.35C9.35 7.55 9.65 7.55 9.85 7.35C10.05 7.15 10.05 6.85 9.85 6.65L8.85 5.65C8.65 5.45 8.35 5.45 8.15 5.65L5.5 8.3L4.35 7.15C4.15 6.95 3.85 6.95 3.65 7.15L2 8.8V2.5C2 2.2 2.2 2 2.5 2H11.5C11.8 2 12 2.2 12 2.5V4.5C12 4.8 12.2 5 12.5 5C12.8 5 13 4.8 13 4.5V2.5C13 1.65 12.35 1 11.5 1H2.5C1.65 1 1 1.65 1 2.5V11.5C1 12.35 1.65 13 2.5 13H5C5.3 13 5.5 12.8 5.5 12.5C5.5 12.2 5.3 12 5 12H2.5C2.2 12 2 11.8 2 11.5V10.2L4 8.2L5.15 9.35C5.35 9.55 5.65 9.55 5.85 9.35L8.5 6.7L9.15 7.35Z" fill="white"/>
  <path d="M4 4.5C4 5.35 4.65 6 5.5 6C6.35 6 7 5.35 7 4.5C7 3.65 6.35 3 5.5 3C4.65 3 4 3.65 4 4.5ZM6 4.5C6 4.8 5.8 5 5.5 5C5.2 5 5 4.8 5 4.5C5 4.2 5.2 4 5.5 4C5.8 4 6 4.2 6 4.5Z" fill="white"/>
</svg>