<?xml version="1.0" encoding="UTF-8"?>
<svg id="Layer_1" data-name="Layer 1" xmlns="http://www.w3.org/2000/svg" viewBox="0 0 467 457">
  <defs>
    <style>
      .cls-1 {
        fill: #fff;
      }
    </style>
  </defs>
  <path class="cls-1" d="M233.5,55.25c46.28,0,89.78,18.02,122.51,50.74s50.74,76.23,50.74,122.51-18.02,89.78-50.74,122.51c-32.72,32.72-76.23,50.74-122.51,50.74s-89.78-18.02-122.51-50.74c-32.72-32.72-50.74-76.23-50.74-122.51s18.02-89.78,50.74-122.51,76.23-50.74,122.51-50.74M233.5,46.25c-100.65,0-182.25,81.6-182.25,182.25s81.6,182.25,182.25,182.25,182.25-81.6,182.25-182.25S334.15,46.25,233.5,46.25Z"/>
  <polygon class="cls-1" points="155.35 148.49 162.9 148.49 234.95 254.38 305.54 148.49 311.63 148.49 311.63 318.88 288.5 318.88 288.5 188.41 227.89 278.23 224.24 278.23 163.63 188.9 163.63 318.88 155.35 318.88 155.35 148.49"/>
</svg>